<svg width="302" height="256" viewBox="0 0 302 256" fill="none" xmlns="http://www.w3.org/2000/svg">
<path d="M125.134 1.43646C124.276 2.36662 121.485 7.58985 118.909 13.0993C116.405 18.6087 112.756 25.8354 110.896 29.1983C109.035 32.5612 106.746 37.0689 105.815 39.2154C104.241 42.793 36.1962 178.883 11.9404 227.037C2.13789 246.427 -0.867256 253.582 0.20601 254.656C0.563765 254.942 17.0205 255.3 36.9117 255.443C71.1131 255.657 73.1881 255.586 75.12 254.369C77.5527 252.795 84.8509 237.913 84.8509 234.55C84.8509 232.761 84.4932 232.403 82.4182 232.046C81.1303 231.759 69.9683 231.688 57.7331 231.831C42.2065 231.974 35.4807 231.831 35.4807 231.258C35.4807 230.829 37.8419 225.892 40.7755 220.168C43.7091 214.516 64.1727 173.731 86.2819 129.584C108.391 85.3659 126.708 49.0895 127.066 48.8748C127.424 48.6602 150.821 94.7391 179.084 151.264C228.454 250.076 230.529 254.083 232.962 255.157C235.108 256.087 239.831 256.158 266.662 255.801C285.552 255.514 298.717 255.013 299.862 254.584C301.722 253.869 301.794 253.654 301.436 250.434C301.078 247.93 285.981 217.091 240.832 126.865C207.704 60.7523 180.085 5.87262 179.298 4.87091C177.223 2.15197 175.935 3.43989 170.784 13.7432C167.135 20.8983 166.204 23.5457 166.204 26.1216C166.204 28.9121 169.138 35.2086 188.958 74.4901C232.89 161.639 265.804 227.752 266.304 229.684L266.734 231.688H256.001H245.197L244.195 229.756C243.265 228.039 209.35 160.423 143.237 28.8405C134.65 11.7398 128.426 0.148538 127.782 0.00543559C127.138 -0.0661155 125.993 0.577844 125.134 1.43646Z" fill="white"/>
<path d="M132.218 91.736C131.073 93.0955 71.5425 211.942 71.1132 213.587C70.8985 214.446 71.1132 215.734 71.614 216.45C72.5442 217.666 75.5493 217.737 132.576 217.523C165.561 217.451 193.394 217.165 194.539 216.95C195.97 216.664 196.471 216.163 196.471 214.804C196.471 212.514 189.745 198.92 187.455 196.63L185.666 194.841H146.027C124.204 194.841 106.316 194.626 106.316 194.412C106.316 193.768 124.061 158.064 135.867 134.881C141.734 123.362 145.669 114.847 145.669 113.631C145.669 110.626 136.01 91.736 134.293 91.2352C133.506 91.0205 132.576 91.2352 132.218 91.736Z" fill="white"/>
</svg>
